<svg xmlns="http://www.w3.org/2000/svg" xmlns:xlink="http://www.w3.org/1999/xlink" version="1.1" data-diagram-type="DESCRIPTION" style="width:546px;height:294px;background:#FFFFFF;" width="546px" height="294px" viewBox="0 0 546 294" zoomAndPan="magnify" preserveAspectRatio="none" contentStyleType="text/css"><?plantuml 1.2026.8?><defs/><g font-family="sans-serif" lengthAdjust="spacing"><g class="title" data-source-line="3"><text x="207.672" y="22.995" fill="#000" font-size="14" textLength="123.655" font-weight="700">IT4IT: Integrate</text></g><!--cluster e_id3db0cbb3835a52--><g class="cluster" data-qualified-name="e_id3db0cbb3835a52" id="ent0001" data-source-line="101"><rect x="7" y="44.297" width="525" height="236" fill="#F8E7C0" style="stroke:#181818;stroke-width:1;" rx="12.5" ry="12.5"/><path d="M507.871,52.744 A0.5,0.5 0 0 0 507.486,53.562 L512.281,59.328 L507.492,64.924 A0.5,0.5 0 0 0 507.873,65.75 L520.904,65.717 A0.5,0.5 0 0 0 521.285,65.537 L526.279,59.584 A0.5,0.5 0 0 0 526.281,58.943 L521.291,52.924 A0.5,0.5 0 0 0 520.906,52.744 M508.937,53.744 L520.672,53.744 L525.246,59.262 L520.668,64.717 L508.959,64.748 L513.314,59.658 A0.5,0.5 0 0 0 513.321,59.014" fill="#000"/><text x="216.505" y="77.436" fill="#000" font-size="12" textLength="105.99" font-weight="700" font-family="Verdana">IT4IT: Integrate</text></g><!--entity e_id05a09249ecd25e--><g class="entity" data-qualified-name="e_id3db0cbb3835a52.e_id05a09249ecd25e" id="ent0002" data-source-line="101"><rect x="29" y="96.297" width="209.703" height="53.969" fill="#F8E7C0" style="stroke:#181818;stroke-width:0.5;" rx="12.5" ry="12.5"/><path d="M209.574,109.744 A0.5,0.5 0 0 0 209.189,110.562 L213.984,116.328 L209.195,121.924 A0.5,0.5 0 0 0 209.576,122.75 L222.607,122.717 A0.5,0.5 0 0 0 222.988,122.537 L227.982,116.584 A0.5,0.5 0 0 0 227.984,115.943 L222.994,109.924 A0.5,0.5 0 0 0 222.609,109.744 M210.64,110.744 L222.375,110.744 L226.949,116.262 L222.371,121.717 L210.662,121.748 L215.017,116.658 A0.5,0.5 0 0 0 215.024,116.014" fill="#000"/><text x="39" y="137.436" fill="#000" font-size="12" textLength="59.268" font-family="Verdana">Integrate:</text><text x="98.268" y="137.436" fill="#000" font-size="12" font-family="Verdana"> </text><text x="102.082" y="137.436" fill="#000" font-size="12" textLength="25.529" font-family="Verdana">Plan</text><text x="127.611" y="137.436" fill="#000" font-size="12" font-family="Verdana"> </text><text x="131.426" y="137.436" fill="#000" font-size="12" textLength="46.037" font-family="Verdana">Product</text><text x="177.463" y="137.436" fill="#000" font-size="12" font-family="Verdana"> </text><text x="181.277" y="137.436" fill="#000" font-size="12" textLength="47.426" font-family="Verdana">Release</text></g><!--entity e_id4d232b4e4d9151--><g class="entity" data-qualified-name="e_id3db0cbb3835a52.e_id4d232b4e4d9151" id="ent0003" data-source-line="101"><rect x="274.5" y="96.297" width="190.9" height="53.969" fill="#F8E7C0" style="stroke:#181818;stroke-width:0.5;" rx="12.5" ry="12.5"/><path d="M436.271,109.744 A0.5,0.5 0 0 0 435.886,110.562 L440.682,116.328 L435.893,121.924 A0.5,0.5 0 0 0 436.273,122.75 L449.304,122.717 A0.5,0.5 0 0 0 449.685,122.537 L454.679,116.584 A0.5,0.5 0 0 0 454.681,115.943 L449.691,109.924 A0.5,0.5 0 0 0 449.306,109.744 M437.337,110.744 L449.072,110.744 L453.646,116.262 L449.068,121.717 L437.359,121.748 L441.715,116.658 A0.5,0.5 0 0 0 441.721,116.014" fill="#000"/><text x="284.5" y="137.436" fill="#000" font-size="12" textLength="59.268" font-family="Verdana">Integrate:</text><text x="343.768" y="137.436" fill="#000" font-size="12" font-family="Verdana"> </text><text x="347.582" y="137.436" fill="#000" font-size="12" textLength="41.432" font-family="Verdana">Design</text><text x="389.014" y="137.436" fill="#000" font-size="12" font-family="Verdana"> </text><text x="392.828" y="137.436" fill="#000" font-size="12" font-family="Verdana">&amp;</text><text x="402.186" y="137.436" fill="#000" font-size="12" font-family="Verdana"> </text><text x="406" y="137.436" fill="#000" font-size="12" textLength="49.4" font-family="Verdana">Develop</text></g><!--entity e_id0925fc6db80453--><g class="entity" data-qualified-name="e_id3db0cbb3835a52.e_id0925fc6db80453" id="ent0004" data-source-line="101"><rect x="22.5" y="210.297" width="222.529" height="53.969" fill="#F8E7C0" style="stroke:#181818;stroke-width:0.5;" rx="12.5" ry="12.5"/><path d="M215.9,223.744 A0.5,0.5 0 0 0 215.515,224.562 L220.31,230.328 L215.522,235.924 A0.5,0.5 0 0 0 215.902,236.75 L228.933,236.717 A0.5,0.5 0 0 0 229.314,236.537 L234.308,230.584 A0.5,0.5 0 0 0 234.31,229.943 L229.32,223.924 A0.5,0.5 0 0 0 228.935,223.744 M216.966,224.744 L228.701,224.744 L233.275,230.262 L228.697,235.717 L216.988,235.748 L221.344,230.658 A0.5,0.5 0 0 0 221.35,230.014" fill="#000"/><text x="32.5" y="251.436" fill="#000" font-size="12" textLength="59.268" font-family="Verdana">Integrate:</text><text x="91.768" y="251.436" fill="#000" font-size="12" font-family="Verdana"> </text><text x="95.582" y="251.436" fill="#000" font-size="12" textLength="33.938" font-family="Verdana">Build,</text><text x="129.52" y="251.436" fill="#000" font-size="12" font-family="Verdana"> </text><text x="133.334" y="251.436" fill="#000" font-size="12" textLength="59.039" font-family="Verdana">Integrate,</text><text x="192.373" y="251.436" fill="#000" font-size="12" font-family="Verdana"> </text><text x="196.188" y="251.436" fill="#000" font-size="12" font-family="Verdana">&amp;</text><text x="205.545" y="251.436" fill="#000" font-size="12" font-family="Verdana"> </text><text x="209.359" y="251.436" fill="#000" font-size="12" textLength="25.67" font-family="Verdana">Test</text></g><!--entity e_id6e0b4917897f59--><g class="entity" data-qualified-name="e_id3db0cbb3835a52.e_id6e0b4917897f59" id="ent0005" data-source-line="101"><rect x="280.5" y="210.297" width="235.402" height="53.969" fill="#F8E7C0" style="stroke:#181818;stroke-width:0.5;" rx="12.5" ry="12.5"/><path d="M486.773,223.744 A0.5,0.5 0 0 0 486.388,224.562 L491.183,230.328 L486.395,235.924 A0.5,0.5 0 0 0 486.775,236.75 L499.806,236.717 A0.5,0.5 0 0 0 500.187,236.537 L505.181,230.584 A0.5,0.5 0 0 0 505.183,229.943 L500.193,223.924 A0.5,0.5 0 0 0 499.808,223.744 M487.839,224.744 L499.574,224.744 L504.148,230.262 L499.57,235.717 L487.861,235.748 L492.217,230.658 A0.5,0.5 0 0 0 492.223,230.014" fill="#000"/><text x="290.5" y="251.436" fill="#000" font-size="12" textLength="59.268" font-family="Verdana">Integrate:</text><text x="349.768" y="251.436" fill="#000" font-size="12" font-family="Verdana"> </text><text x="353.582" y="251.436" fill="#000" font-size="12" textLength="41.109" font-family="Verdana">Accept</text><text x="394.691" y="251.436" fill="#000" font-size="12" font-family="Verdana"> </text><text x="398.506" y="251.436" fill="#000" font-size="12" font-family="Verdana">&amp;</text><text x="407.863" y="251.436" fill="#000" font-size="12" font-family="Verdana"> </text><text x="411.678" y="251.436" fill="#000" font-size="12" textLength="42.984" font-family="Verdana">Publish</text><text x="454.662" y="251.436" fill="#000" font-size="12" font-family="Verdana"> </text><text x="458.477" y="251.436" fill="#000" font-size="12" textLength="47.426" font-family="Verdana">Release</text></g><?plantuml-src VSzDIyD040RW-_wAiGTH27Ip7sssY53nablGuBNinpHTsAObsHL4_Ezk3qKZcDEymp0FCpU-jo4vX0Szs8C_weZBxJKz4X9z30XrA-fs0tKViHloW93NUAdTn-vDXuIvGtsymvrtt1bgZU4Lbrgo0XP_TnVty4a0_WMer5GneT0w9l42N3Stq0JTGpESNB8HNZ2W7hCtfmd7E3C2XLEbBAVQCuw-w-4sXtSCf_Eyb8-IUxjofg92ygdqb7nmnS-FHKPR7EEyk49gX2hNbLhlfPgAMsln73FJ91FyUFZrxHSXtm00?></g></svg>
