<svg xmlns="http://www.w3.org/2000/svg" xmlns:xlink="http://www.w3.org/1999/xlink" version="1.1" data-diagram-type="DESCRIPTION" style="width:736px;height:963px;background:#FFFFFF;" width="736px" height="963px" viewBox="0 0 736 963" zoomAndPan="magnify" preserveAspectRatio="none" contentStyleType="text/css"><?plantuml 1.2026.8?><defs/><g font-family="sans-serif" lengthAdjust="spacing"><g class="title" data-source-line="3"><text x="282.404" y="22.995" fill="#000" font-size="14" textLength="164.691" font-weight="700">IT4IT: Value Streams</text></g><!--cluster e_idf2e1bcaab0b050--><g class="cluster" data-qualified-name="e_idf2e1bcaab0b050" id="ent0001" data-source-line="101"><rect x="71" y="166.297" width="644" height="783" fill="#F8E7C0" style="stroke:#181818;stroke-width:1;" rx="12.5" ry="12.5"/><path d="M690.871,174.744 A0.5,0.5 0 0 0 690.486,175.562 L695.281,181.328 L690.492,186.924 A0.5,0.5 0 0 0 690.873,187.75 L703.904,187.717 A0.5,0.5 0 0 0 704.285,187.537 L709.279,181.584 A0.5,0.5 0 0 0 709.281,180.943 L704.291,174.924 A0.5,0.5 0 0 0 703.906,174.744 M691.937,175.744 L703.672,175.744 L708.246,181.262 L703.668,186.717 L691.959,186.748 L696.314,181.658 A0.5,0.5 0 0 0 696.321,181.014" fill="#000"/><text x="322.418" y="199.436" fill="#000" font-size="12" textLength="141.164" font-weight="700" font-family="Verdana">IT4IT: Value Streams</text></g><!--entity e_id7fb8e4a3ead059--><g class="entity" data-qualified-name="e_idf2e1bcaab0b050.e_id7fb8e4a3ead059" id="ent0002" data-source-line="101"><rect x="475" y="226.297" width="140" height="53.969" fill="#F8E7C0" style="stroke:#181818;stroke-width:0.5;" rx="12.5" ry="12.5"/><path d="M585.871,239.744 A0.5,0.5 0 0 0 585.486,240.562 L590.281,246.328 L585.492,251.924 A0.5,0.5 0 0 0 585.873,252.75 L598.904,252.717 A0.5,0.5 0 0 0 599.285,252.537 L604.279,246.584 A0.5,0.5 0 0 0 604.281,245.943 L599.291,239.924 A0.5,0.5 0 0 0 598.906,239.744 M586.937,240.744 L598.672,240.744 L603.246,246.262 L598.668,251.717 L586.959,251.748 L591.314,246.658 A0.5,0.5 0 0 0 591.321,246.014" fill="#000"/><text x="503.738" y="267.436" fill="#000" font-size="12" textLength="33.416" font-family="Verdana">IT4IT:</text><text x="537.154" y="267.436" fill="#000" font-size="12" font-family="Verdana"> </text><text x="540.969" y="267.436" fill="#000" font-size="12" textLength="45.293" font-family="Verdana">Explore</text></g><!--entity e_id587fca1cae9254--><g class="entity" data-qualified-name="e_idf2e1bcaab0b050.e_id587fca1cae9254" id="ent0003" data-source-line="101"><rect x="430" y="355.297" width="140" height="53.969" fill="#F8E7C0" style="stroke:#181818;stroke-width:0.5;" rx="12.5" ry="12.5"/><path d="M540.871,368.744 A0.5,0.5 0 0 0 540.486,369.562 L545.281,375.328 L540.492,380.924 A0.5,0.5 0 0 0 540.873,381.75 L553.904,381.717 A0.5,0.5 0 0 0 554.285,381.537 L559.279,375.584 A0.5,0.5 0 0 0 559.281,374.943 L554.291,368.924 A0.5,0.5 0 0 0 553.906,368.744 M541.937,369.744 L553.672,369.744 L558.246,375.262 L553.668,380.717 L541.959,380.748 L546.314,375.658 A0.5,0.5 0 0 0 546.321,375.014" fill="#000"/><text x="455.176" y="396.436" fill="#000" font-size="12" textLength="33.416" font-family="Verdana">IT4IT:</text><text x="488.592" y="396.436" fill="#000" font-size="12" font-family="Verdana"> </text><text x="492.406" y="396.436" fill="#000" font-size="12" textLength="52.418" font-family="Verdana">Evaluate</text></g><!--entity e_id3db0cbb3835a52--><g class="entity" data-qualified-name="e_idf2e1bcaab0b050.e_id3db0cbb3835a52" id="ent0004" data-source-line="101"><rect x="290" y="484.297" width="140" height="53.969" fill="#F8E7C0" style="stroke:#181818;stroke-width:0.5;" rx="12.5" ry="12.5"/><path d="M400.871,497.744 A0.5,0.5 0 0 0 400.486,498.562 L405.281,504.328 L400.492,509.924 A0.5,0.5 0 0 0 400.873,510.75 L413.904,510.717 A0.5,0.5 0 0 0 414.285,510.537 L419.279,504.584 A0.5,0.5 0 0 0 419.281,503.943 L414.291,497.924 A0.5,0.5 0 0 0 413.906,497.744 M401.937,498.744 L413.672,498.744 L418.246,504.262 L413.668,509.717 L401.959,509.748 L406.314,504.658 A0.5,0.5 0 0 0 406.321,504.014" fill="#000"/><text x="313.772" y="525.436" fill="#000" font-size="12" textLength="33.416" font-family="Verdana">IT4IT:</text><text x="347.188" y="525.436" fill="#000" font-size="12" font-family="Verdana"> </text><text x="351.003" y="525.436" fill="#000" font-size="12" textLength="55.225" font-family="Verdana">Integrate</text></g><!--entity e_id2a9a1fcfef0e5f--><g class="entity" data-qualified-name="e_idf2e1bcaab0b050.e_id2a9a1fcfef0e5f" id="ent0005" data-source-line="101"><rect x="103" y="613.297" width="140" height="53.969" fill="#F8E7C0" style="stroke:#181818;stroke-width:0.5;" rx="12.5" ry="12.5"/><path d="M213.871,626.744 A0.5,0.5 0 0 0 213.486,627.562 L218.281,633.328 L213.492,638.924 A0.5,0.5 0 0 0 213.873,639.75 L226.904,639.717 A0.5,0.5 0 0 0 227.285,639.537 L232.279,633.584 A0.5,0.5 0 0 0 232.281,632.943 L227.291,626.924 A0.5,0.5 0 0 0 226.906,626.744 M214.937,627.744 L226.672,627.744 L231.246,633.262 L226.668,638.717 L214.959,638.748 L219.314,633.658 A0.5,0.5 0 0 0 219.32,633.014" fill="#000"/><text x="133.376" y="654.436" fill="#000" font-size="12" textLength="33.416" font-family="Verdana">IT4IT:</text><text x="166.792" y="654.436" fill="#000" font-size="12" font-family="Verdana"> </text><text x="170.606" y="654.436" fill="#000" font-size="12" textLength="42.018" font-family="Verdana">Deploy</text></g><!--entity e_id2450fe8b5d985b--><g class="entity" data-qualified-name="e_idf2e1bcaab0b050.e_id2450fe8b5d985b" id="ent0006" data-source-line="101"><rect x="364" y="613.297" width="140" height="53.969" fill="#F8E7C0" style="stroke:#181818;stroke-width:0.5;" rx="12.5" ry="12.5"/><path d="M474.871,626.744 A0.5,0.5 0 0 0 474.486,627.562 L479.281,633.328 L474.492,638.924 A0.5,0.5 0 0 0 474.873,639.75 L487.904,639.717 A0.5,0.5 0 0 0 488.285,639.537 L493.279,633.584 A0.5,0.5 0 0 0 493.281,632.943 L488.291,626.924 A0.5,0.5 0 0 0 487.906,626.744 M475.937,627.744 L487.672,627.744 L492.246,633.262 L487.668,638.717 L475.959,638.748 L480.314,633.658 A0.5,0.5 0 0 0 480.321,633.014" fill="#000"/><text x="391.672" y="654.436" fill="#000" font-size="12" textLength="33.416" font-family="Verdana">IT4IT:</text><text x="425.088" y="654.436" fill="#000" font-size="12" font-family="Verdana"> </text><text x="428.902" y="654.436" fill="#000" font-size="12" textLength="47.426" font-family="Verdana">Release</text></g><!--entity e_idd9aa16f51da958--><g class="entity" data-qualified-name="e_idf2e1bcaab0b050.e_idd9aa16f51da958" id="ent0007" data-source-line="101"><rect x="453" y="871.297" width="140" height="53.969" fill="#F8E7C0" style="stroke:#181818;stroke-width:0.5;" rx="12.5" ry="12.5"/><path d="M563.871,884.744 A0.5,0.5 0 0 0 563.486,885.562 L568.281,891.328 L563.492,896.924 A0.5,0.5 0 0 0 563.873,897.75 L576.904,897.717 A0.5,0.5 0 0 0 577.285,897.537 L582.279,891.584 A0.5,0.5 0 0 0 582.281,890.943 L577.291,884.924 A0.5,0.5 0 0 0 576.906,884.744 M564.937,885.744 L576.672,885.744 L581.246,891.262 L576.668,896.717 L564.959,896.748 L569.314,891.658 A0.5,0.5 0 0 0 569.321,891.014" fill="#000"/><text x="479.975" y="912.436" fill="#000" font-size="12" textLength="33.416" font-family="Verdana">IT4IT:</text><text x="513.391" y="912.436" fill="#000" font-size="12" font-family="Verdana"> </text><text x="517.205" y="912.436" fill="#000" font-size="12" textLength="48.82" font-family="Verdana">Operate</text></g><!--entity e_idd3ec795635fd51--><g class="entity" data-qualified-name="e_idf2e1bcaab0b050.e_idd3ec795635fd51" id="ent0008" data-source-line="101"><rect x="397" y="742.297" width="140" height="53.969" fill="#F8E7C0" style="stroke:#181818;stroke-width:0.5;" rx="12.5" ry="12.5"/><path d="M507.871,755.744 A0.5,0.5 0 0 0 507.486,756.562 L512.281,762.328 L507.492,767.924 A0.5,0.5 0 0 0 507.873,768.75 L520.904,768.717 A0.5,0.5 0 0 0 521.285,768.537 L526.279,762.584 A0.5,0.5 0 0 0 526.281,761.943 L521.291,755.924 A0.5,0.5 0 0 0 520.906,755.744 M508.937,756.744 L520.672,756.744 L525.246,762.262 L520.668,767.717 L508.959,767.748 L513.314,762.658 A0.5,0.5 0 0 0 513.321,762.014" fill="#000"/><text x="420.257" y="783.436" fill="#000" font-size="12" textLength="33.416" font-family="Verdana">IT4IT:</text><text x="453.673" y="783.436" fill="#000" font-size="12" font-family="Verdana"> </text><text x="457.487" y="783.436" fill="#000" font-size="12" textLength="56.256" font-family="Verdana">Consume</text></g><!--entity e_id98a0748d593250--><g class="entity" data-qualified-name="e_id98a0748d593250" id="ent0009" data-source-line="283"><path d="M18,43.297 L140,43.297 L152,55.297 L152,85.266 L140,97.266 L18,97.266 L6,85.266 L6,55.297 L18,43.297" style="stroke:#181818;stroke-width:0.5;" fill="#CCF"/><path d="M137.23,54.379 A0.5,0.5 0 0 0 136.73,54.879 L136.73,57.676 L133.381,61.187 C132.3,60.302 130.916,59.775 129.413,59.785 A0.5,0.5 0 0 0 129.39,59.794 A0.5,0.5 0 0 0 129.371,59.787 C125.951,59.833 123.205,62.651 123.245,66.07 C123.286,69.489 126.099,72.24 129.519,72.205 C132.938,72.17 135.694,69.362 135.665,65.943 C135.652,64.385 135.063,62.963 134.102,61.879 L137.444,58.375 L140.117,58.375 A0.5,0.5 0 0 0 140.616,57.875 A0.5,0.5 0 0 0 140.117,57.375 L137.73,57.375 L137.73,54.878 A0.5,0.5 0 0 0 137.23,54.379 M129.409,60.775 L129.41,60.775 A0.5,0.5 0 0 0 129.42,60.785 C130.657,60.777 131.795,61.198 132.693,61.909 L131.758,62.889 C131.242,62.505 130.627,62.247 129.961,62.16 A0.5,0.5 0 0 0 129.517,61.875 A0.5,0.5 0 0 0 129.065,62.146 C127.096,62.344 125.561,64.026 125.585,66.041 C125.611,68.169 127.367,69.887 129.496,69.865 C131.477,69.845 133.102,68.326 133.303,66.399 A0.5,0.5 0 0 0 133.507,65.996 A0.5,0.5 0 0 0 133.502,65.929 A0.5,0.5 0 0 0 133.302,65.593 C133.224,64.838 132.927,64.147 132.477,63.584 L133.413,62.602 C134.184,63.502 134.654,64.67 134.665,65.951 C134.69,68.831 132.388,71.175 129.509,71.205 C126.629,71.234 124.28,68.938 124.246,66.058 C124.211,63.179 126.505,60.826 129.384,60.787 A0.5,0.5 0 0 0 129.409,60.775 M128.997,63.163 L128.976,64.528 A0.959,0.959 0 0 0 128.975,64.528 A0.959,0.959 0 0 0 128.782,64.625 C128.223,64.907 127.777,65.383 127.785,66.043 C127.796,66.962 128.57,67.718 129.489,67.709 C130.24,67.701 130.883,67.185 131.09,66.496 L132.281,66.496 C132.048,67.834 130.893,68.851 129.484,68.865 C127.895,68.882 126.605,67.618 126.586,66.029 C126.568,64.583 127.611,63.383 128.997,63.163 M129.997,63.177 C130.387,63.251 130.748,63.403 131.064,63.617 L130.212,64.511 C130.137,64.473 130.058,64.441 129.978,64.415 M131.783,64.313 C132.031,64.657 132.205,65.059 132.281,65.496 L131.073,65.496 C131.038,65.392 130.993,65.292 130.939,65.197" fill="#000"/><text x="16" y="84.436" fill="#000" font-size="12" textLength="33.416" font-family="Verdana">IT4IT:</text><text x="49.416" y="84.436" fill="#000" font-size="12" font-family="Verdana"> </text><text x="53.23" y="84.436" fill="#000" font-size="12" textLength="38.918" font-family="Verdana">Digital</text><text x="92.148" y="84.436" fill="#000" font-size="12" font-family="Verdana"> </text><text x="95.963" y="84.436" fill="#000" font-size="12" textLength="46.037" font-family="Verdana">Product</text></g><!--reverse link e_id98a0748d593250 to e_idf2e1bcaab0b050--><g class="link" data-entity-1="ent0009" data-entity-2="ent0001" id="lnk11" data-source-line="349" data-link-type="extension"><path d="M79,115.617 C79,127.969 79,125.61 79,142.172 C79,146.313 79,150.511 79,154.73 C79,156.839 79,158.954 79,161.069 C79,162.126 79,163.184 79,164.241 C79,164.77 79,165.298 79,165.826" style="stroke:#000;stroke-width:1;stroke-dasharray:1,3;" fill="none" id="e_id98a0748d593250-backto-e_idf2e1bcaab0b050"/><polygon points="79,97.617,73,115.617,85,115.617,79,97.617" fill="none" style="stroke:#000;stroke-width:1;stroke-linejoin:miter;stroke-miterlimit:10;"/><text x="80" y="139.436" fill="#000" font-size="12" font-family="Verdana"> </text></g><!--link e_id2450fe8b5d985b to e_idd3ec795635fd51--><g class="link" data-entity-1="ent0006" data-entity-2="ent0008" id="lnk12" data-source-line="349" data-link-type="dependency"><path d="M440.76,667.307 C446.41,689.077 452.437,712.264 458.127,734.144" style="stroke:#000;stroke-width:1;stroke-dasharray:7,7;" fill="none" id="e_id2450fe8b5d985b-to-e_idd3ec795635fd51"/><polygon points="460.14,741.887,461.03,733.389,455.223,734.899,460.14,741.887" fill="#000" style="stroke:#000;stroke-width:1;stroke-linejoin:miter;stroke-miterlimit:10;"/><text x="452" y="709.436" fill="#000" font-size="12" font-family="Verdana"> </text></g><!--link e_id2a9a1fcfef0e5f to e_id587fca1cae9254--><g class="link" data-entity-1="ent0005" data-entity-2="ent0003" id="lnk13" data-source-line="349" data-link-type="dependency"><path d="M174.6,613.117 C178.71,570.107 193.29,484.717 245,439.297 C272.12,415.477 356.237,400.664 421.947,392.074" style="stroke:#000;stroke-width:1;stroke-dasharray:7,7;" fill="none" id="e_id2a9a1fcfef0e5f-to-e_id587fca1cae9254"/><polygon points="429.88,391.037,421.559,389.099,422.336,395.049,429.88,391.037" fill="#000" style="stroke:#000;stroke-width:1;stroke-linejoin:miter;stroke-miterlimit:10;"/><text x="209" y="515.936" fill="#000" font-size="12" font-family="Verdana"> </text></g><!--link e_id587fca1cae9254 to e_id2a9a1fcfef0e5f--><g class="link" data-entity-1="ent0003" data-entity-2="ent0005" id="lnk29" data-source-line="349" data-link-type="dependency"><path d="M429.91,386.847 C371.7,392.217 288.18,405.667 223,439.297 C197.01,452.707 187.42,457.817 175,484.297 C155.46,525.957 159.676,573.26 165.596,605.29" style="stroke:#000;stroke-width:1;stroke-dasharray:7,7;" fill="none" id="e_id587fca1cae9254-to-e_id2a9a1fcfef0e5f"/><polygon points="167.05,613.157,168.546,604.745,162.646,605.835,167.05,613.157" fill="#000" style="stroke:#000;stroke-width:1;stroke-linejoin:miter;stroke-miterlimit:10;"/><text x="176" y="515.936" fill="#000" font-size="12" font-family="Verdana"> </text></g><!--link e_idd3ec795635fd51 to e_id587fca1cae9254--><g class="link" data-entity-1="ent0008" data-entity-2="ent0003" id="lnk14" data-source-line="349" data-link-type="dependency"><path d="M425.27,742.147 C351.26,692.407 210.47,580.567 273,484.297 C307.42,431.307 368.989,407.659 422.029,395.609" style="stroke:#000;stroke-width:1;stroke-dasharray:7,7;" fill="none" id="e_idd3ec795635fd51-to-e_id587fca1cae9254"/><polygon points="429.83,393.837,421.364,392.684,422.693,398.535,429.83,393.837" fill="#000" style="stroke:#000;stroke-width:1;stroke-linejoin:miter;stroke-miterlimit:10;"/><text x="268" y="580.436" fill="#000" font-size="12" font-family="Verdana"> </text></g><!--link e_id587fca1cae9254 to e_idd3ec795635fd51--><g class="link" data-entity-1="ent0003" data-entity-2="ent0008" id="lnk16" data-source-line="349" data-link-type="dependency"><path d="M514.64,409.537 C519.37,418.747 524.33,429.297 528,439.297 C535.09,458.627 536.54,463.857 539,484.297 C548.77,565.397 547.29,589.627 522,667.297 C513.22,694.257 501.541,715.629 489.061,735.329" style="stroke:#000;stroke-width:1;stroke-dasharray:7,7;" fill="none" id="e_id587fca1cae9254-to-e_idd3ec795635fd51"/><polygon points="484.78,742.087,491.595,736.934,486.527,733.723,484.78,742.087" fill="#000" style="stroke:#000;stroke-width:1;stroke-linejoin:miter;stroke-miterlimit:10;"/><text x="545" y="580.436" fill="#000" font-size="12" font-family="Verdana"> </text></g><!--link e_id7fb8e4a3ead059 to e_id3db0cbb3835a52--><g class="link" data-entity-1="ent0002" data-entity-2="ent0004" id="lnk15" data-source-line="349" data-link-type="dependency"><path d="M564.31,280.407 C585.78,312.907 614.2,369.037 588,409.297 C569.73,437.377 497.814,465.87 437.794,486.03" style="stroke:#000;stroke-width:1;stroke-dasharray:7,7;" fill="none" id="e_id7fb8e4a3ead059-to-e_id3db0cbb3835a52"/><polygon points="430.21,488.577,438.749,488.873,436.838,483.186,430.21,488.577" fill="#000" style="stroke:#000;stroke-width:1;stroke-linejoin:miter;stroke-miterlimit:10;"/><text x="599" y="386.936" fill="#000" font-size="12" font-family="Verdana"> </text></g><!--link e_id587fca1cae9254 to e_id7fb8e4a3ead059--><g class="link" data-entity-1="ent0003" data-entity-2="ent0002" id="lnk17" data-source-line="349" data-link-type="dependency"><path d="M498.48,354.967 C498.52,341.277 499.9,324.487 505,310.297 C508.8,299.727 510.429,295.789 517.019,286.919" style="stroke:#000;stroke-width:1;stroke-dasharray:7,7;" fill="none" id="e_id587fca1cae9254-to-e_id7fb8e4a3ead059"/><polygon points="521.79,280.497,514.611,285.129,519.427,288.708,521.79,280.497" fill="#000" style="stroke:#000;stroke-width:1;stroke-linejoin:miter;stroke-miterlimit:10;"/><text x="506" y="322.436" fill="#000" font-size="12" font-family="Verdana"> </text></g><!--link e_id7fb8e4a3ead059 to e_id587fca1cae9254--><g class="link" data-entity-1="ent0002" data-entity-2="ent0003" id="lnk27" data-source-line="349" data-link-type="dependency"><path d="M535.78,280.307 C528.07,302.077 519.781,325.466 512.031,347.346" style="stroke:#000;stroke-width:1;stroke-dasharray:7,7;" fill="none" id="e_id7fb8e4a3ead059-to-e_id587fca1cae9254"/><polygon points="509.36,354.887,514.859,348.348,509.203,346.344,509.36,354.887" fill="#000" style="stroke:#000;stroke-width:1;stroke-linejoin:miter;stroke-miterlimit:10;"/><text x="524" y="322.436" fill="#000" font-size="12" font-family="Verdana"> </text></g><!--link e_id587fca1cae9254 to e_idd9aa16f51da958--><g class="link" data-entity-1="ent0003" data-entity-2="ent0007" id="lnk18" data-source-line="349" data-link-type="dependency"><path d="M570.11,406.537 C613.21,420.977 660.51,437.197 662,439.297 C714.93,513.597 721.5,690.507 620,841.297 C611.86,853.397 606.933,858.949 594.463,866.789" style="stroke:#000;stroke-width:1;stroke-dasharray:7,7;" fill="none" id="e_id587fca1cae9254-to-e_idd9aa16f51da958"/><polygon points="587.69,871.047,596.059,869.329,592.866,864.249,587.69,871.047" fill="#000" style="stroke:#000;stroke-width:1;stroke-linejoin:miter;stroke-miterlimit:10;"/><text x="699" y="644.936" fill="#000" font-size="12" font-family="Verdana"> </text></g><!--link e_idd9aa16f51da958 to e_id587fca1cae9254--><g class="link" data-entity-1="ent0007" data-entity-2="ent0003" id="lnk19" data-source-line="349" data-link-type="dependency"><path d="M533.62,871.237 C541.23,851.137 550.83,822.457 555,796.297 C576.84,659.347 572.29,621.177 550,484.297 C546.69,463.977 547.47,458.067 539,439.297 C534.32,428.927 532.336,424.966 525.846,415.926" style="stroke:#000;stroke-width:1;stroke-dasharray:7,7;" fill="none" id="e_idd9aa16f51da958-to-e_id587fca1cae9254"/><polygon points="521.18,409.427,523.409,417.675,528.283,414.176,521.18,409.427" fill="#000" style="stroke:#000;stroke-width:1;stroke-linejoin:miter;stroke-miterlimit:10;"/><text x="570" y="644.936" fill="#000" font-size="12" font-family="Verdana"> </text></g><!--link e_id2a9a1fcfef0e5f to e_idd9aa16f51da958--><g class="link" data-entity-1="ent0005" data-entity-2="ent0007" id="lnk20" data-source-line="349" data-link-type="dependency"><path d="M205.82,667.377 C245.43,698.657 314.31,752.357 375,796.297 C411.16,822.477 446.626,846.596 476.666,866.646" style="stroke:#000;stroke-width:1;stroke-dasharray:7,7;" fill="none" id="e_id2a9a1fcfef0e5f-to-e_idd9aa16f51da958"/><polygon points="483.32,871.087,478.331,864.15,475.001,869.141,483.32,871.087" fill="#000" style="stroke:#000;stroke-width:1;stroke-linejoin:miter;stroke-miterlimit:10;"/><text x="376" y="773.936" fill="#000" font-size="12" font-family="Verdana"> </text></g><!--link e_idd3ec795635fd51 to e_idd9aa16f51da958--><g class="link" data-entity-1="ent0008" data-entity-2="ent0007" id="lnk21" data-source-line="349" data-link-type="dependency"><path d="M478.47,796.307 C488.07,818.077 498.482,841.687 508.132,863.567" style="stroke:#000;stroke-width:1;stroke-dasharray:7,7;" fill="none" id="e_idd3ec795635fd51-to-e_idd9aa16f51da958"/><polygon points="511.36,870.887,510.877,862.357,505.387,864.778,511.36,870.887" fill="#000" style="stroke:#000;stroke-width:1;stroke-linejoin:miter;stroke-miterlimit:10;"/><text x="497" y="838.436" fill="#000" font-size="12" font-family="Verdana"> </text></g><!--link e_id3db0cbb3835a52 to e_id2a9a1fcfef0e5f--><g class="link" data-entity-1="ent0004" data-entity-2="ent0005" id="lnk22" data-source-line="349" data-link-type="dependency"><path d="M334.36,538.407 C319.54,552.667 300.11,570.077 281,583.297 C265.11,594.297 253.902,600.934 236.912,609.624" style="stroke:#000;stroke-width:1;stroke-dasharray:7,7;" fill="none" id="e_id3db0cbb3835a52-to-e_id2a9a1fcfef0e5f"/><polygon points="229.79,613.267,238.279,612.295,235.546,606.953,229.79,613.267" fill="#000" style="stroke:#000;stroke-width:1;stroke-linejoin:miter;stroke-miterlimit:10;"/><text x="300" y="580.436" fill="#000" font-size="12" font-family="Verdana"> </text></g><!--link e_id587fca1cae9254 to e_id2450fe8b5d985b--><g class="link" data-entity-1="ent0003" data-entity-2="ent0006" id="lnk23" data-source-line="349" data-link-type="dependency"><path d="M509.44,409.587 C522.18,449.847 539.91,527.907 509,583.297 C502.43,595.077 498.601,600.258 487.831,608.438" style="stroke:#000;stroke-width:1;stroke-dasharray:7,7;" fill="none" id="e_id587fca1cae9254-to-e_id2450fe8b5d985b"/><polygon points="481.46,613.277,489.645,610.827,486.016,606.049,481.46,613.277" fill="#000" style="stroke:#000;stroke-width:1;stroke-linejoin:miter;stroke-miterlimit:10;"/><text x="527" y="515.936" fill="#000" font-size="12" font-family="Verdana"> </text></g><!--link e_id2450fe8b5d985b to e_id587fca1cae9254--><g class="link" data-entity-1="ent0006" data-entity-2="ent0003" id="lnk24" data-source-line="349" data-link-type="dependency"><path d="M440.78,613.007 C453.43,563.937 478.513,466.664 491.193,417.474" style="stroke:#000;stroke-width:1;stroke-dasharray:7,7;" fill="none" id="e_id2450fe8b5d985b-to-e_id587fca1cae9254"/><polygon points="493.19,409.727,488.288,416.725,494.098,418.222,493.19,409.727" fill="#000" style="stroke:#000;stroke-width:1;stroke-linejoin:miter;stroke-miterlimit:10;"/><text x="474" y="515.936" fill="#000" font-size="12" font-family="Verdana"> </text></g><!--link e_id587fca1cae9254 to e_id3db0cbb3835a52--><g class="link" data-entity-1="ent0003" data-entity-2="ent0004" id="lnk25" data-source-line="349" data-link-type="dependency"><path d="M471.33,409.307 C447.33,431.077 419.155,456.632 395.035,478.512" style="stroke:#000;stroke-width:1;stroke-dasharray:7,7;" fill="none" id="e_id587fca1cae9254-to-e_id3db0cbb3835a52"/><polygon points="389.11,483.887,397.051,480.734,393.02,476.29,389.11,483.887" fill="#000" style="stroke:#000;stroke-width:1;stroke-linejoin:miter;stroke-miterlimit:10;"/><text x="435" y="451.436" fill="#000" font-size="12" font-family="Verdana"> </text></g><!--link e_id3db0cbb3835a52 to e_id587fca1cae9254--><g class="link" data-entity-1="ent0004" data-entity-2="ent0003" id="lnk28" data-source-line="349" data-link-type="dependency"><path d="M375.74,484.147 C385.13,469.867 397.95,452.457 412,439.297 C423.9,428.157 431.521,422.175 445.211,413.595" style="stroke:#000;stroke-width:1;stroke-dasharray:7,7;" fill="none" id="e_id3db0cbb3835a52-to-e_id587fca1cae9254"/><polygon points="451.99,409.347,443.618,411.053,446.804,416.137,451.99,409.347" fill="#000" style="stroke:#000;stroke-width:1;stroke-linejoin:miter;stroke-miterlimit:10;"/><text x="413" y="451.436" fill="#000" font-size="12" font-family="Verdana"> </text></g><!--link e_id3db0cbb3835a52 to e_id2450fe8b5d985b--><g class="link" data-entity-1="ent0004" data-entity-2="ent0006" id="lnk26" data-source-line="349" data-link-type="dependency"><path d="M375.15,538.307 C387.84,560.077 401.832,584.095 414.582,605.975" style="stroke:#000;stroke-width:1;stroke-dasharray:7,7;" fill="none" id="e_id3db0cbb3835a52-to-e_id2450fe8b5d985b"/><polygon points="418.61,612.887,417.174,604.464,411.99,607.485,418.61,612.887" fill="#000" style="stroke:#000;stroke-width:1;stroke-linejoin:miter;stroke-miterlimit:10;"/><text x="400" y="580.436" fill="#000" font-size="12" font-family="Verdana"> </text></g><?plantuml-src dPDRImCn48NVzrV4FYa8xYtTZOWWNg0FedXxBPDaKWExtRBDUiN_RjeYMz9e5jz2cE_CpCd9dfwBgfD8Jg0Lpxe6WqTdFwVJA3BQL4Wc3_dauPWyGTKXkJSjGhsC8dkmHRFtwVf-SxsFKorLYWaN03pcCOqFoSZ7Zmx8PqJ8hoA5uYNca278cB9UvF9jKJKjZWx-WcbPA06906GfpRVW5rjeaR_fJF9OS9wL6GMQzlHaRilR89u2WqG9XIf6gdhy0ktaxm4sfx72abF9IifxzWuhX6MWiMG0oLZHH0AZPG_VB30yjSnG58oECweaJNhul9alkte5VqNNZT4lO7GpdzvqHZGrhb5MGbpafQGiIxVV-qBFj86AtBQDx8In4f7TOtg7KEcFZSpZmfiOhwhbL_XLrRnwlV9kiGCvZ-DDYmkvgeCWDy3UPBcGgpfe9n-qytq6TN83j6E4Kp3829_buKuUouEGQw_tDmunOkSR3ibUq0XVfs0Yl3k5nlDbBpYUhzE_Tl9P_Wq0?></g></svg>
