<svg xmlns="http://www.w3.org/2000/svg" xmlns:xlink="http://www.w3.org/1999/xlink" version="1.1" data-diagram-type="ACTIVITY" style="width:797px;height:957px;background:#FFFFFF;" width="797px" height="957px" viewBox="0 0 797 957" zoomAndPan="magnify" preserveAspectRatio="none" contentStyleType="text/css"><?plantuml 1.2026.8?><defs/><g font-family="sans-serif" lengthAdjust="spacing"><ellipse cx="296.865" cy="25" rx="10" ry="10" fill="#222" style="stroke:#222;stroke-width:1;"/><rect x="178.593" y="55" width="236.545" height="47.938" fill="#F1F1F1" style="stroke:#181818;stroke-width:0.5;" rx="12.5" ry="12.5"/><text x="188.593" y="76.139" fill="#000" font-size="12" textLength="216.545">Take NormalizedDocument.sections</text><text x="188.593" y="90.107" fill="#000" font-size="12" textLength="198.223">(ordered, from R4 normalization)</text><rect x="214.748" y="122.938" width="164.234" height="33.969" fill="#F1F1F1" style="stroke:#181818;stroke-width:0.5;" rx="12.5" ry="12.5"/><text x="224.748" y="144.076" fill="#000" font-size="12" textLength="144.234">Start new, empty chunk</text><rect x="233.536" y="220.906" width="126.658" height="33.969" fill="#F1F1F1" style="stroke:#181818;stroke-width:0.5;" rx="12.5" ry="12.5"/><text x="243.536" y="242.045" fill="#000" font-size="12" textLength="106.658">Take next section</text><polygon points="227.482,274.875,366.249,274.875,378.249,287.68,366.249,300.484,227.482,300.484,215.482,287.68,227.482,274.875" fill="#F1F1F1" style="stroke:#181818;stroke-width:0.5;stroke-linejoin:miter;stroke-miterlimit:10;"/><text x="227.482" y="285.085" fill="#000" font-size="11" textLength="105.671">section fits chunk's</text><text x="227.482" y="297.89" fill="#000" font-size="11" textLength="138.768">remaining token budget?</text><text x="196.473" y="285.085" fill="#000" font-size="11" textLength="19.008">yes</text><text x="378.249" y="285.085" fill="#000" font-size="11" textLength="13.702">no</text><rect x="16" y="310.484" width="211.49" height="47.938" fill="#F1F1F1" style="stroke:#181818;stroke-width:0.5;" rx="12.5" ry="12.5"/><text x="26" y="331.623" fill="#000" font-size="12" textLength="165.809">Add whole section to chunk</text><text x="26" y="345.592" fill="#000" font-size="12" textLength="191.49">(never split a section mid-body)</text><polygon points="426.866,310.484,517.106,310.484,529.106,322.484,517.106,334.484,426.866,334.484,414.866,322.484,426.866,310.484" fill="#F1F1F1" style="stroke:#181818;stroke-width:0.5;stroke-linejoin:miter;stroke-miterlimit:10;"/><text x="426.866" y="326.292" fill="#000" font-size="11" textLength="90.24">chunk is empty?</text><text x="395.858" y="319.89" fill="#000" font-size="11" textLength="19.008">yes</text><text x="529.106" y="319.89" fill="#000" font-size="11" textLength="13.702">no</text><rect x="257.49" y="344.484" width="173.381" height="47.938" fill="#F1F1F1" style="stroke:#181818;stroke-width:0.5;" rx="12.5" ry="12.5"/><text x="267.49" y="365.623" fill="#000" font-size="12" textLength="120.621">Add section anyway</text><text x="267.49" y="379.592" fill="#000" font-size="12" textLength="153.381">(single oversized section)</text><rect x="475.568" y="344.484" width="248.445" height="47.938" fill="#F1F1F1" style="stroke:#181818;stroke-width:0.5;" rx="12.5" ry="12.5"/><text x="485.568" y="365.623" fill="#000" font-size="12" textLength="225.574">Carry trailing context into next chunk</text><text x="485.568" y="379.592" fill="#000" font-size="12" textLength="228.445">(prior chunk's last heading + excerpt)</text><rect x="450.871" y="412.422" width="297.84" height="33.969" fill="#F1F1F1" style="stroke:#181818;stroke-width:0.5;" rx="12.5" ry="12.5"/><text x="460.871" y="433.561" fill="#000" font-size="12" textLength="277.84">Close chunk -> call llm_client.convert_chunk()</text><rect x="506.436" y="466.391" width="186.711" height="47.938" fill="#F1F1F1" style="stroke:#181818;stroke-width:0.5;" rx="12.5" ry="12.5"/><text x="516.436" y="487.529" fill="#000" font-size="12" textLength="149.373">Start new chunk, seeded</text><text x="516.436" y="501.498" fill="#000" font-size="12" textLength="166.711">with carried trailing context</text><rect x="488.436" y="534.328" width="222.711" height="33.969" fill="#F1F1F1" style="stroke:#181818;stroke-width:0.5;" rx="12.5" ry="12.5"/><text x="498.436" y="555.467" fill="#000" font-size="12" textLength="202.711">Add current section to new chunk</text><polygon points="471.986,574.297,483.986,586.297,471.986,598.297,459.986,586.297,471.986,574.297" fill="#F1F1F1" style="stroke:#181818;stroke-width:0.5;stroke-linejoin:miter;stroke-miterlimit:10;"/><polygon points="296.865,604.297,308.865,616.297,296.865,628.297,284.865,616.297,296.865,604.297" fill="#F1F1F1" style="stroke:#181818;stroke-width:0.5;stroke-linejoin:miter;stroke-miterlimit:10;"/><polygon points="296.865,176.906,308.865,188.906,296.865,200.906,284.865,188.906,296.865,176.906" fill="#F1F1F1" style="stroke:#181818;stroke-width:0.5;stroke-linejoin:miter;stroke-miterlimit:10;"/><polygon points="234.021,648.297,359.71,648.297,371.71,660.297,359.71,672.297,234.021,672.297,222.021,660.297,234.021,648.297" fill="#F1F1F1" style="stroke:#181818;stroke-width:0.5;stroke-linejoin:miter;stroke-miterlimit:10;"/><text x="234.021" y="664.105" fill="#000" font-size="11" textLength="125.689">more sections remain?</text><text x="371.71" y="657.703" fill="#000" font-size="11" textLength="19.008">yes</text><rect x="133.113" y="713.696" width="327.506" height="33.969" fill="#F1F1F1" style="stroke:#181818;stroke-width:0.5;" rx="12.5" ry="12.5"/><text x="143.113" y="734.834" fill="#000" font-size="12" textLength="307.506">Close final chunk -> call llm_client.convert_chunk()</text><polygon points="229.695,767.665,364.036,767.665,376.036,780.469,364.036,793.274,229.695,793.274,217.695,780.469,229.695,767.665" fill="#F1F1F1" style="stroke:#181818;stroke-width:0.5;stroke-linejoin:miter;stroke-miterlimit:10;"/><text x="229.695" y="777.875" fill="#000" font-size="11" textLength="127.708">control's full statement</text><text x="229.695" y="790.68" fill="#000" font-size="11" textLength="134.342">contained in this chunk?</text><text x="198.686" y="777.875" fill="#000" font-size="11" textLength="19.008">yes</text><text x="376.036" y="777.875" fill="#000" font-size="11" textLength="13.702">no</text><rect x="84.807" y="803.274" width="209.949" height="47.938" fill="#F1F1F1" style="stroke:#181818;stroke-width:0.5;" rx="12.5" ry="12.5"/><text x="94.807" y="824.413" fill="#000" font-size="12" textLength="189.949">LLM emits the complete control</text><text x="94.807" y="838.381" fill="#000" font-size="12" textLength="164.994">(identifier + full statement)</text><rect x="314.757" y="803.274" width="178.385" height="61.906" fill="#F1F1F1" style="stroke:#181818;stroke-width:0.5;" rx="12.5" ry="12.5"/><text x="324.757" y="824.413" fill="#000" font-size="12" textLength="158.385">Defer control to the chunk</text><text x="324.757" y="838.381" fill="#000" font-size="12" textLength="156.715">where it completes (R5) --</text><text x="324.757" y="852.35" fill="#000" font-size="12" textLength="137.918">never emitted partially</text><polygon points="296.865,871.18,308.865,883.18,296.865,895.18,284.865,883.18,296.865,871.18" fill="#F1F1F1" style="stroke:#181818;stroke-width:0.5;stroke-linejoin:miter;stroke-miterlimit:10;"/><ellipse cx="296.865" cy="926.18" rx="11" ry="11" fill="none" style="stroke:#222;stroke-width:1;"/><ellipse cx="296.865" cy="926.18" rx="6" ry="6" fill="#222" style="stroke:#222;stroke-width:1;"/><line x1="296.865" y1="35" x2="296.865" y2="55" style="stroke:#181818;stroke-width:1;"/><polygon points="292.865,45,296.865,55,300.865,45,296.865,49" fill="#181818" style="stroke:#181818;stroke-width:1;stroke-linejoin:miter;stroke-miterlimit:10;"/><line x1="296.865" y1="102.938" x2="296.865" y2="122.938" style="stroke:#181818;stroke-width:1;"/><polygon points="292.865,112.938,296.865,122.938,300.865,112.938,296.865,116.938" fill="#181818" style="stroke:#181818;stroke-width:1;stroke-linejoin:miter;stroke-miterlimit:10;"/><line x1="599.791" y1="392.422" x2="599.791" y2="412.422" style="stroke:#181818;stroke-width:1;"/><polygon points="595.791,402.422,599.791,412.422,603.791,402.422,599.791,406.422" fill="#181818" style="stroke:#181818;stroke-width:1;stroke-linejoin:miter;stroke-miterlimit:10;"/><line x1="599.791" y1="446.391" x2="599.791" y2="466.391" style="stroke:#181818;stroke-width:1;"/><polygon points="595.791,456.391,599.791,466.391,603.791,456.391,599.791,460.391" fill="#181818" style="stroke:#181818;stroke-width:1;stroke-linejoin:miter;stroke-miterlimit:10;"/><line x1="599.791" y1="514.328" x2="599.791" y2="534.328" style="stroke:#181818;stroke-width:1;"/><polygon points="595.791,524.328,599.791,534.328,603.791,524.328,599.791,528.328" fill="#181818" style="stroke:#181818;stroke-width:1;stroke-linejoin:miter;stroke-miterlimit:10;"/><line x1="414.866" y1="322.484" x2="344.181" y2="322.484" style="stroke:#181818;stroke-width:1;"/><line x1="344.181" y1="322.484" x2="344.181" y2="344.484" style="stroke:#181818;stroke-width:1;"/><polygon points="340.181,334.484,344.181,344.484,348.181,334.484,344.181,338.484" fill="#181818" style="stroke:#181818;stroke-width:1;stroke-linejoin:miter;stroke-miterlimit:10;"/><line x1="529.106" y1="322.484" x2="599.791" y2="322.484" style="stroke:#181818;stroke-width:1;"/><line x1="599.791" y1="322.484" x2="599.791" y2="344.484" style="stroke:#181818;stroke-width:1;"/><polygon points="595.791,334.484,599.791,344.484,603.791,334.484,599.791,338.484" fill="#181818" style="stroke:#181818;stroke-width:1;stroke-linejoin:miter;stroke-miterlimit:10;"/><line x1="344.181" y1="392.422" x2="344.181" y2="586.297" style="stroke:#181818;stroke-width:1;"/><line x1="344.181" y1="586.297" x2="459.986" y2="586.297" style="stroke:#181818;stroke-width:1;"/><polygon points="449.986,582.297,459.986,586.297,449.986,590.297,453.986,586.297" fill="#181818" style="stroke:#181818;stroke-width:1;stroke-linejoin:miter;stroke-miterlimit:10;"/><line x1="599.791" y1="568.297" x2="599.791" y2="586.297" style="stroke:#181818;stroke-width:1;"/><line x1="599.791" y1="586.297" x2="483.986" y2="586.297" style="stroke:#181818;stroke-width:1;"/><polygon points="493.986,582.297,483.986,586.297,493.986,590.297,489.986,586.297" fill="#181818" style="stroke:#181818;stroke-width:1;stroke-linejoin:miter;stroke-miterlimit:10;"/><line x1="215.482" y1="287.68" x2="121.745" y2="287.68" style="stroke:#181818;stroke-width:1;"/><line x1="121.745" y1="287.68" x2="121.745" y2="310.484" style="stroke:#181818;stroke-width:1;"/><polygon points="117.745,300.484,121.745,310.484,125.745,300.484,121.745,304.484" fill="#181818" style="stroke:#181818;stroke-width:1;stroke-linejoin:miter;stroke-miterlimit:10;"/><line x1="378.249" y1="287.68" x2="471.986" y2="287.68" style="stroke:#181818;stroke-width:1;"/><line x1="471.986" y1="287.68" x2="471.986" y2="310.484" style="stroke:#181818;stroke-width:1;"/><polygon points="467.986,300.484,471.986,310.484,475.986,300.484,471.986,304.484" fill="#181818" style="stroke:#181818;stroke-width:1;stroke-linejoin:miter;stroke-miterlimit:10;"/><line x1="121.745" y1="358.422" x2="121.745" y2="616.297" style="stroke:#181818;stroke-width:1;"/><line x1="121.745" y1="616.297" x2="284.865" y2="616.297" style="stroke:#181818;stroke-width:1;"/><polygon points="274.865,612.297,284.865,616.297,274.865,620.297,278.865,616.297" fill="#181818" style="stroke:#181818;stroke-width:1;stroke-linejoin:miter;stroke-miterlimit:10;"/><line x1="471.986" y1="598.297" x2="471.986" y2="616.297" style="stroke:#181818;stroke-width:1;"/><line x1="471.986" y1="616.297" x2="308.865" y2="616.297" style="stroke:#181818;stroke-width:1;"/><polygon points="318.865,612.297,308.865,616.297,318.865,620.297,314.865,616.297" fill="#181818" style="stroke:#181818;stroke-width:1;stroke-linejoin:miter;stroke-miterlimit:10;"/><line x1="296.865" y1="254.875" x2="296.865" y2="274.875" style="stroke:#181818;stroke-width:1;"/><polygon points="292.865,264.875,296.865,274.875,300.865,264.875,296.865,268.875" fill="#181818" style="stroke:#181818;stroke-width:1;stroke-linejoin:miter;stroke-miterlimit:10;"/><line x1="296.865" y1="200.906" x2="296.865" y2="220.906" style="stroke:#181818;stroke-width:1;"/><polygon points="292.865,210.906,296.865,220.906,300.865,210.906,296.865,214.906" fill="#181818" style="stroke:#181818;stroke-width:1;stroke-linejoin:miter;stroke-miterlimit:10;"/><line x1="371.71" y1="660.297" x2="762.711" y2="660.297" style="stroke:#181818;stroke-width:1;"/><polygon points="758.711,434.602,762.711,424.602,766.711,434.602,762.711,430.602" fill="#181818" style="stroke:#181818;stroke-width:1;stroke-linejoin:miter;stroke-miterlimit:10;"/><line x1="762.711" y1="188.906" x2="762.711" y2="660.297" style="stroke:#181818;stroke-width:1;"/><line x1="762.711" y1="188.906" x2="308.865" y2="188.906" style="stroke:#181818;stroke-width:1;"/><polygon points="318.865,184.906,308.865,188.906,318.865,192.906,314.865,188.906" fill="#181818" style="stroke:#181818;stroke-width:1;stroke-linejoin:miter;stroke-miterlimit:10;"/><line x1="296.865" y1="628.297" x2="296.865" y2="648.297" style="stroke:#181818;stroke-width:1;"/><polygon points="292.865,638.297,296.865,648.297,300.865,638.297,296.865,642.297" fill="#181818" style="stroke:#181818;stroke-width:1;stroke-linejoin:miter;stroke-miterlimit:10;"/><line x1="296.865" y1="156.906" x2="296.865" y2="176.906" style="stroke:#181818;stroke-width:1;"/><polygon points="292.865,166.906,296.865,176.906,300.865,166.906,296.865,170.906" fill="#181818" style="stroke:#181818;stroke-width:1;stroke-linejoin:miter;stroke-miterlimit:10;"/><line x1="296.865" y1="672.297" x2="296.865" y2="713.696" style="stroke:#181818;stroke-width:1;"/><polygon points="292.865,703.696,296.865,713.696,300.865,703.696,296.865,707.696" fill="#181818" style="stroke:#181818;stroke-width:1;stroke-linejoin:miter;stroke-miterlimit:10;"/><text x="300.865" y="693.602" fill="#000" font-size="11" textLength="13.702">no</text><line x1="217.695" y1="780.469" x2="189.782" y2="780.469" style="stroke:#181818;stroke-width:1;"/><line x1="189.782" y1="780.469" x2="189.782" y2="803.274" style="stroke:#181818;stroke-width:1;"/><polygon points="185.782,793.274,189.782,803.274,193.782,793.274,189.782,797.274" fill="#181818" style="stroke:#181818;stroke-width:1;stroke-linejoin:miter;stroke-miterlimit:10;"/><line x1="376.036" y1="780.469" x2="403.949" y2="780.469" style="stroke:#181818;stroke-width:1;"/><line x1="403.949" y1="780.469" x2="403.949" y2="803.274" style="stroke:#181818;stroke-width:1;"/><polygon points="399.949,793.274,403.949,803.274,407.949,793.274,403.949,797.274" fill="#181818" style="stroke:#181818;stroke-width:1;stroke-linejoin:miter;stroke-miterlimit:10;"/><line x1="189.782" y1="851.211" x2="189.782" y2="883.18" style="stroke:#181818;stroke-width:1;"/><line x1="189.782" y1="883.18" x2="284.865" y2="883.18" style="stroke:#181818;stroke-width:1;"/><polygon points="274.865,879.18,284.865,883.18,274.865,887.18,278.865,883.18" fill="#181818" style="stroke:#181818;stroke-width:1;stroke-linejoin:miter;stroke-miterlimit:10;"/><line x1="403.949" y1="865.18" x2="403.949" y2="883.18" style="stroke:#181818;stroke-width:1;"/><line x1="403.949" y1="883.18" x2="308.865" y2="883.18" style="stroke:#181818;stroke-width:1;"/><polygon points="318.865,879.18,308.865,883.18,318.865,887.18,314.865,883.18" fill="#181818" style="stroke:#181818;stroke-width:1;stroke-linejoin:miter;stroke-miterlimit:10;"/><line x1="296.865" y1="747.665" x2="296.865" y2="767.665" style="stroke:#181818;stroke-width:1;"/><polygon points="292.865,757.665,296.865,767.665,300.865,757.665,296.865,761.665" fill="#181818" style="stroke:#181818;stroke-width:1;stroke-linejoin:miter;stroke-miterlimit:10;"/><line x1="296.865" y1="895.18" x2="296.865" y2="915.18" style="stroke:#181818;stroke-width:1;"/><polygon points="292.865,905.18,296.865,915.18,300.865,905.18,296.865,909.18" fill="#181818" style="stroke:#181818;stroke-width:1;stroke-linejoin:miter;stroke-miterlimit:10;"/><?plantuml-src bLCzRzim4DtrAswhZ5YTsiK6KWJDc7P8Ene86F4K7KoH0dcke_xwFegIQxXJ9qFItViy9pLHgzrFSsJw7k9WdFnc-nZQqy1UFoPkLO9F1r-7Q3cotL8Nmq3FdyWluoPFRFRLxaV68i_dBV4mwaHjV_B7VLL57jbeHLHuFByhBSXxl9MEwkMHEj5KzZw0DF9Wn8j_8mr7zlHwic-iNpQaFPxgYTC6-y1zi9REVN2yucAXm42vvrySAOrEbCnbO13Rl0OxRR84Tecfzg70PK7pCaagLlwbN4XNDEEdivb0bg0MCW8eKuvodPXfRea0yjN4E9568oxxR8FN78zu69Y3MbsCKK9Seo5dabBFnkQbE-BtbkEe2qc6TG54nKHpJwrnZfmRNbedkLVGGA2-p0FrtxLBXMLr2_LisHxyMRG7Iem2IxTgzzU9jASOGN5Tn0LloS1RwQhrjnm7sXF4LWyXNZfCLFf7-EYXHD_S-u2BMlnruetx3vVLt2n4n-0GOdV2V5AZd8_zuFCNyC6XG7SlooNUbhzxUlg6iyYNYlS8OHWTAzC2ZAx40aywmTdTtR10nVKDx1wvmzIociEQ8Kldvnx_ECBLhXH8uVdpXfhcuCjHPnKAlIDg4xYVW3wdMYKDuny0?></g></svg>
